<?xml version="1.0" encoding="UTF-8"?>
<svg id="Layer_2" xmlns="http://www.w3.org/2000/svg" width="512" height="512" viewBox="0 0 512 512">
	<defs>
		<style>.cls-1{fill:#632d92;}.cls-2{fill:#b196c8;}.cls-3{fill:#fff;}</style>
	</defs>
	<g id="circle-big">
		<circle class="cls-2" cx="256" cy="256" r="256"/>
	</g>
	<g id="circle-logo">
		<circle class="cls-1" cx="256.35" cy="255.41" r="251"/>
		<g id="n">
			<path class="cls-3" d="m256.45,127.39h-32.6c2.09-10.12,9.71-13.76,16.22-13.76,6.84,0,14.75,3.65,16.38,13.76m0-52.14h-32.6c2.09-10.12,9.71-13.76,16.22-13.76,6.84,0,14.75,3.6,16.38,13.76m-16.63-24.12c-18.02,0-30.15,12.25-30.15,30.43,0,5.65,1.23,13.76,7.04,20.23,2.01,2.21,4.34,4.05,7,5.45-8.77,5-14.05,14.42-14.05,26.46,0,5.65,1.23,13.76,7.04,20.23,5.45,6.06,13.52,9.17,23.96,9.17,20.27,0,26.62-13.89,28.71-18.47l.2-.41h-14.66l-.08.16c-2.13,3.85-5.49,7.74-14.54,7.74-7.25,0-15.85-3.93-16.55-14.99h46.78v-2.38c0-8.81-2.42-16.34-7.04-21.83-1.97-2.33-4.26-4.22-6.88-5.73,8.07-4.46,11.35-11.67,12.74-14.7l.2-.41h-14.66l-.08.16c-2.13,3.85-5.49,7.74-14.54,7.74-7.25,0-15.85-3.93-16.55-14.99h46.78v-2.38c0-8.81-2.42-16.34-7.04-21.83-5.32-6.43-13.27-9.67-23.63-9.67"/>
			<path class="cls-3" d="m323.37,133.41c0,16.79-12.53,18.1-16.34,18.1s-16.47-1.31-16.47-18.1c0-8.64,4.34-17.9,16.47-17.9s16.34,9.26,16.34,17.9m-.57-20.64c-3.65-5.73-10.32-8.89-18.88-8.89-18.84,0-27.44,15.32-27.44,29.53,0,7.58,2.25,14.62,6.35,19.95,4.79,6.18,11.8,9.54,20.27,9.75,9.83-.2,16.51-3.81,19.82-10.81l1.47,8.77h11.92v-76.1h-13.52v27.81h0Z"/>
			<path class="cls-3" d="m370.81,126.57c-12.57-2.01-13.39-2.74-13.39-6.88,0-2.5,3.4-6.06,10.94-6.06,4.71,0,12.78,1.15,13.72,8.89l.04.25h14.05v-.33c-.37-8.77-5.37-19.21-27.16-19.21-7.54,0-25.11,1.76-25.11,18.06,0,12.98,8.56,14.91,23.63,17.12,13.89,2.09,15.85,3.44,15.85,7.5,0,3.28-3.48,6.76-13.19,6.76-3.89,0-12.98-.9-13.35-9.3v-.29h-14.62v.29c.25,8.97,5.32,19.62,28.1,19.62,18.14,0,27.73-6.59,27.73-19.13-.04-12.94-10.85-14.66-27.24-17.28"/>
			<path class="cls-3" d="m176.7,74.39c-12.57-2.01-13.39-2.74-13.39-6.88,0-2.5,3.4-6.06,10.94-6.06,4.71,0,12.78,1.15,13.76,8.89l.04.25h14.05v-.33c-.37-8.77-5.37-19.21-27.16-19.21-7.54,0-25.11,1.76-25.11,18.06,0,12.98,8.56,14.87,23.63,17.12,13.89,2.09,15.85,3.44,15.85,7.5,0,3.28-3.48,6.76-13.19,6.76-3.89,0-12.98-.9-13.35-9.3v-.29h-14.62v.29c.25,8.97,5.32,19.62,28.1,19.62,18.14,0,27.73-6.59,27.73-19.13-.04-12.94-10.9-14.66-27.28-17.28"/>
		</g>
	</g>
	<g id="logo">
		<path class="cls-3" d="m337.02,196.21c-1.79.18-3.49,1.18-4.52,2.66l-57.03,81.03c-3.41-1.09-6.89-1.83-10.42-1.77-16.47.29-33.16,11.37-42.97,28.22-24.81,42.62-80.58,58.61-109.45,66.28-3.9,1-5.9,6.31-3.64,9.64,12.66,18.3,25.31,32.14,42.19,45.43,2.14,1.73,5.45,1.82,7.67.2l7.77-5.6-4.23,6.59c-1.78,2.82-.79,7.03,2.06,8.75,14.34,8.71,30.63,17.2,45.14,22.52,2.15.78,4.71.26,6.39-1.28l7.28-6.69-1.18,2.06c-1.87,3.27.03,8.05,3.64,9.14,16.61,4.94,32.12,9.73,45.82,9.73,2.23,0,4.42-1.29,5.51-3.24l56.54-100.6s.08-.06.1-.1c6.49-11.2,9.07-23.59,7.77-34.81-1.07-9.21-5.04-17.73-11.7-23.6l41.89-89.88c1.33-2.85.1-6.64-2.65-8.16l-28.32-15.73c-1.1-.62-2.38-.9-3.64-.79Zm2.46,14.55l18.29,10.13-38.65,82.9-32.16-18.39,52.51-74.64Zm-193.82,29.5c-8.61,0-15.73,7.12-15.73,15.73s7.12,15.73,15.73,15.73,15.73-7.12,15.73-15.73-7.12-15.73-15.73-15.73Zm0,12.59c1.81,0,3.15,1.33,3.15,3.15s-1.33,3.15-3.15,3.15-3.15-1.33-3.15-3.15,1.33-3.15,3.15-3.15Zm37.76,6.29c-8.61,0-15.73,7.12-15.73,15.73s7.12,15.73,15.73,15.73,15.73-7.12,15.73-15.73-7.12-15.73-15.73-15.73Zm0,12.59c1.81,0,3.15,1.33,3.15,3.15s-1.33,3.15-3.15,3.15-3.15-1.33-3.15-3.15,1.33-3.15,3.15-3.15Zm81.81,18.98c3.57-.06,6.74.72,9.44,2.26.25.15,43.74,25,44.05,25.17,5.56,3.18,9.17,9.43,10.13,17.7.77,6.59-.36,14.18-3.44,21.54l-88.99-50.05c8.02-10.28,19.65-16.46,28.81-16.62Zm-103.84,6.2c-10.35,0-18.88,8.53-18.88,18.88s8.53,18.88,18.88,18.88,18.88-8.53,18.88-18.88-8.53-18.88-18.88-18.88Zm0,12.59c3.55,0,6.29,2.74,6.29,6.29s-2.74,6.29-6.29,6.29-6.29-2.74-6.29-6.29,2.74-6.29,6.29-6.29Zm68.24,8.36l89.97,50.64-51.53,91.55c-8.46-.55-19.18-3.16-31.07-6.59l17.9-30.68c1.38-2.56.68-6.07-1.59-7.89s-5.84-1.77-8.05.12l-34.71,31.86c-10.81-4.25-22.72-10.34-34.02-16.91l18.49-29.01c1.58-2.45,1.13-6.01-1-8-2.13-1.99-5.71-2.2-8.05-.46l-30.48,22.12c-11.7-9.66-21.33-20.07-30.58-32.45,29.71-8.17,78.1-23.97,104.73-64.31Z"/>
	</g>
</svg>